<svg xmlns="http://www.w3.org/2000/svg" width="63.298" height="63.298" viewBox="0 0 63.298 63.298">
  <g id="pro_share" transform="translate(-121.345 -2567.347)">
    <g id="share" transform="translate(121.345 2567.347)">
      <path id="Path_5928" data-name="Path 5928" d="M175.532,18.647,158.166.613A2,2,0,0,0,154.72,2v8.683h-.668A26.079,26.079,0,0,0,128,36.736v4.007a1.977,1.977,0,0,0,1.56,1.916,1.79,1.79,0,0,0,.441.053,2.073,2.073,0,0,0,1.83-1.141,21.915,21.915,0,0,1,19.711-12.183h3.174v8.683a2,2,0,0,0,3.446,1.389l17.366-18.034a2,2,0,0,0,0-2.781Zm0,0" transform="translate(-112.796 -0.001)"/>
      <path id="Path_5929" data-name="Path 5929" d="M55.389,137.951H7.916A7.911,7.911,0,0,1,0,130.059V93.232A7.912,7.912,0,0,1,7.916,85.34h7.912a2.63,2.63,0,1,1,0,5.261H7.916a2.635,2.635,0,0,0-2.638,2.631v36.827a2.635,2.635,0,0,0,2.638,2.631H55.389a2.635,2.635,0,0,0,2.637-2.631V109.015a2.637,2.637,0,0,1,5.275,0v21.044a7.911,7.911,0,0,1-7.912,7.892Zm0,0" transform="translate(-0.004 -74.653)"/>
    </g>
  </g>
</svg>
