<svg xmlns="http://www.w3.org/2000/svg" width="63.422" height="63.298" viewBox="0 0 63.422 63.298">
  <g id="pro_rateus" transform="translate(-121.607 -1140.765)">
    <path id="rating" d="M10.266,38.977A2.477,2.477,0,0,0,13.7,38.3a21.547,21.547,0,0,1,35.772-.044,2.477,2.477,0,0,0,4.111-2.766A26.441,26.441,0,0,0,40.552,25.341a14,14,0,1,0-17.75-.055A26.434,26.434,0,0,0,9.585,35.54,2.477,2.477,0,0,0,10.266,38.977ZM31.711,5.455A9.043,9.043,0,1,1,22.668,14.5,9.053,9.053,0,0,1,31.711,5.455Zm9.88,38.911L37.9,47.031a1.551,1.551,0,0,0-.57,1.741l1.487,4.311a1.563,1.563,0,0,1,.079.558,1.633,1.633,0,0,1-2.568,1.182l-3.693-2.665a1.577,1.577,0,0,0-1.843,0L27.1,54.823a1.632,1.632,0,0,1-2.568-1.182,1.588,1.588,0,0,1,.081-.558l1.486-4.311a1.551,1.551,0,0,0-.57-1.741l-3.693-2.664a1.671,1.671,0,0,1,.922-2.989h4.565a1.427,1.427,0,0,0,1.491-.9l1.411-4.339a1.571,1.571,0,0,1,2.982,0l1.411,4.339a1.427,1.427,0,0,0,1.491.9h4.565A1.671,1.671,0,0,1,41.591,44.366Zm21.182,8.671L59.079,55.7a1.551,1.551,0,0,0-.57,1.741L60,61.753a1.563,1.563,0,0,1,.079.558,1.633,1.633,0,0,1-2.568,1.182l-3.693-2.665a1.577,1.577,0,0,0-1.843,0l-3.693,2.665a1.632,1.632,0,0,1-2.568-1.182,1.588,1.588,0,0,1,.081-.558l1.486-4.311a1.551,1.551,0,0,0-.57-1.741l-3.693-2.664a1.671,1.671,0,0,1,.922-2.989H48.5a1.427,1.427,0,0,0,1.491-.9L51.4,44.807a1.571,1.571,0,0,1,2.982,0l1.411,4.339a1.427,1.427,0,0,0,1.491.9h4.565A1.671,1.671,0,0,1,62.772,53.037Zm-42.364,0L16.715,55.7a1.551,1.551,0,0,0-.57,1.741l1.487,4.311a1.563,1.563,0,0,1,.079.558,1.633,1.633,0,0,1-2.568,1.182l-3.693-2.665a1.577,1.577,0,0,0-1.843,0L5.914,63.494a1.632,1.632,0,0,1-2.568-1.182,1.588,1.588,0,0,1,.081-.558l1.486-4.311a1.551,1.551,0,0,0-.57-1.741L.649,53.037a1.671,1.671,0,0,1,.922-2.989H6.136a1.427,1.427,0,0,0,1.491-.9l1.411-4.339a1.571,1.571,0,0,1,2.982,0l1.411,4.339a1.427,1.427,0,0,0,1.491.9h4.565A1.671,1.671,0,0,1,20.409,53.037Z" transform="translate(121.607 1140.265)"/>
  </g>
</svg>
