<svg xmlns="http://www.w3.org/2000/svg" width="55.949" height="59.742" viewBox="0 0 55.949 59.742">
  <g id="pro_th" transform="translate(-124.525 -1528.629)">
    <g id="Group_5446" data-name="Group 5446" transform="translate(88.532 1524.629)">
      <path id="Path_6366" data-name="Path 6366" d="M71.185,38A1.188,1.188,0,0,0,70,39.187V86.172a2.612,2.612,0,0,1,3.03.481l2.281,2.281,3.91-2.607a2.607,2.607,0,0,1,2.895,0l4.242,2.828L90.6,86.326a2.614,2.614,0,0,1,2.893,0l3.912,2.609,2.281-2.282a2.614,2.614,0,0,1,3.03-.48V39.185a6.421,6.421,0,0,1,.11-1.185ZM74.5,79.013a1.422,1.422,0,0,1-2.845,0V71.427a1.422,1.422,0,1,1,2.845,0Zm3.793,0a1.422,1.422,0,0,1-2.845,0V71.427a1.422,1.422,0,1,1,2.845,0Zm5.69,0a1.422,1.422,0,0,1-2.845,0V71.427a1.422,1.422,0,1,1,2.845,0Zm3.793,0a1.422,1.422,0,0,1-2.845,0V71.427a1.422,1.422,0,1,1,2.845,0Zm3.793,0a1.422,1.422,0,0,1-2.845,0V71.427a1.422,1.422,0,1,1,2.845,0ZM84.461,51.039h3.793a5.216,5.216,0,0,1,0,10.431H87.78v2.371a1.422,1.422,0,1,1-2.845,0V61.47H83.513A4.272,4.272,0,0,1,79.246,57.2a1.422,1.422,0,1,1,2.845,0,1.425,1.425,0,0,0,1.422,1.422h4.741a2.371,2.371,0,0,0,0-4.741H84.461a5.216,5.216,0,1,1,0-10.431h.474V41.082a1.422,1.422,0,1,1,2.845,0v2.371H89.2A4.272,4.272,0,0,1,93.47,47.72a1.422,1.422,0,0,1-2.845,0A1.425,1.425,0,0,0,89.2,46.3H84.461a2.371,2.371,0,1,0,0,4.741Zm12.8,27.974a1.422,1.422,0,0,1-2.845,0V71.427a1.422,1.422,0,1,1,2.845,0Zm3.793,0a1.422,1.422,0,0,1-2.845,0V71.427a1.422,1.422,0,1,1,2.845,0Z" transform="translate(-29.976 -29.97)"/>
      <g id="_29-Receipt" data-name=" 29-Receipt" transform="translate(35.993 4)">
        <g id="filled">
          <path id="Path_6367" data-name="Path 6367" d="M90.521,11.586H84.357V9.216A5.222,5.222,0,0,0,79.141,4H41.21a5.221,5.221,0,0,0-5.216,5.216v53.1a1.432,1.432,0,0,0,2.429,1.005l2.714-2.714.072-.072.072.072L44,63.326a1.425,1.425,0,0,0,1.8.178l4.338-2.893.562-.375.562.375L55.593,63.5a1.423,1.423,0,0,0,1.579,0L61.51,60.61l.562-.375.562.375L66.972,63.5a1.42,1.42,0,0,0,1.795-.178l2.716-2.714.072-.072.072.072,2.716,2.716a1.431,1.431,0,0,0,2.428-1.006V37.19h9.957a5.222,5.222,0,0,0,5.216-5.216V13.009A1.422,1.422,0,0,0,90.521,11.586ZM70.549,57.52,67.58,60.489l-4.719-3.147a1.427,1.427,0,0,0-1.579,0l-4.9,3.268-4.9-3.267a1.423,1.423,0,0,0-1.579,0l-4.719,3.146-2.968-2.968a1.423,1.423,0,0,0-2.013,0l-1.364,1.364V9.216A2.373,2.373,0,0,1,41.21,6.845H74.5a5.186,5.186,0,0,0-.57,2.371v49.67L72.56,57.52A1.424,1.424,0,0,0,70.549,57.52ZM76.77,34.345V9.216a2.371,2.371,0,1,1,4.741,0V31.974a5.186,5.186,0,0,0,.57,2.371ZM89.1,31.974a2.371,2.371,0,1,1-4.741,0V14.431H89.1Z" transform="translate(-35.993 -4)"/>
        </g>
      </g>
    </g>
  </g>
</svg>
