<svg xmlns="http://www.w3.org/2000/svg" width="62.809" height="62.81" viewBox="0 0 62.809 62.81">
  <g id="pro_customersupport" transform="translate(-108.857 -945.856)">
    <g id="headphones_1_" data-name="headphones (1)" transform="translate(108.857 945.857)">
      <g id="Group_5227" data-name="Group 5227" transform="translate(0 21.986)">
        <g id="Group_5224" data-name="Group 5224">
          <path id="Path_5922" data-name="Path 5922" d="M0,256.763v7.378A6.763,6.763,0,0,0,6.763,270.9h3.689a1.844,1.844,0,0,0,1.844-1.844V250H6.763A6.763,6.763,0,0,0,0,256.763Z" transform="translate(0 -241.393)"/>
          <path id="Path_5923" data-name="Path 5923" d="M184.363,194.141V184.3a4.309,4.309,0,0,0-4.3-4.3H165.3a4.309,4.309,0,0,0-4.3,4.3v9.837a4.309,4.309,0,0,0,4.3,4.3h4.251l6.865,5.721a1.844,1.844,0,0,0,3.025-1.417v-4.3h.615A4.309,4.309,0,0,0,184.363,194.141Zm-9.222-3.074h-4.918a1.844,1.844,0,1,1,0-3.689h4.918a1.844,1.844,0,1,1,0,3.689Z" transform="translate(-141.35 -180)"/>
          <path id="Path_5924" data-name="Path 5924" d="M201,455.689a3.689,3.689,0,0,0,3.689,3.689h6.148a3.689,3.689,0,1,0,0-7.378h-6.148A3.689,3.689,0,0,0,201,455.689Z" transform="translate(-176.432 -418.555)"/>
        </g>
        <g id="Group_5226" data-name="Group 5226" transform="translate(41.514 8.607)">
          <g id="Group_5225" data-name="Group 5225" transform="translate(0 24.592)">
            <path id="Path_5925" data-name="Path 5925" d="M349.045,450v.369a1.846,1.846,0,0,1-1.844,1.844h-8.32a7.343,7.343,0,0,1-.064,3.689H347.2a5.54,5.54,0,0,0,5.533-5.533V450Z" transform="translate(-338.817 -450)"/>
          </g>
          <path id="Path_5926" data-name="Path 5926" d="M417.533,250H412v19.059a1.844,1.844,0,0,0,1.844,1.844h3.689a6.763,6.763,0,0,0,6.763-6.763v-7.378A6.763,6.763,0,0,0,417.533,250Z" transform="translate(-403.001 -250)"/>
        </g>
      </g>
      <path id="Path_5927" data-name="Path 5927" d="M85.215,7.779A26.486,26.486,0,0,0,40,26.56v.492h7.357V26.56a19.129,19.129,0,1,1,38.258,0v.492h7.357V26.56A26.423,26.423,0,0,0,85.215,7.779Z" transform="translate(-35.082)"/>
    </g>
  </g>
</svg>
