<svg xmlns="http://www.w3.org/2000/svg" width="63.286" height="63.298" viewBox="0 0 63.286 63.298">
  <g id="pro_contact_us" transform="translate(-32.123 747.112)">
    <path id="Path_6402" data-name="Path 6402" d="M43.539-747.112a3.615,3.615,0,0,1,1.84,1.475q4.2,6.326,8.416,12.638a2.9,2.9,0,0,1-.066,3.794,8.038,8.038,0,0,1-.94.8q-1.97,1.539-3.948,3.067c-1.615,1.253-1.8,2.421-.841,4.241a45.933,45.933,0,0,0,7.968,10.551,74.6,74.6,0,0,0,8.567,7.806,38.943,38.943,0,0,0,5.357,3.292,2.637,2.637,0,0,0,3.55-.854c1.209-1.509,2.374-3.053,3.572-4.572a2.832,2.832,0,0,1,4.178-.685c4.288,2.841,8.56,5.7,12.844,8.551a3.481,3.481,0,0,1,1.374,1.769v1.482c-1.167,2.2-2.488,4.311-3.808,6.419a6.686,6.686,0,0,1-4.223,2.989,20.163,20.163,0,0,1-8.991.058,41.174,41.174,0,0,1-14.876-6.816,85.067,85.067,0,0,1-10.361-8.464A101.946,101.946,0,0,1,40.624-713.5,46.768,46.768,0,0,1,33.182-727.7a22.605,22.605,0,0,1-.795-10.179,7.262,7.262,0,0,1,3-5.251q3.24-2.143,6.671-3.985Z" transform="translate(0 0)"/>
    <path id="Path_6403" data-name="Path 6403" d="M259.757-698a20.42,20.42,0,0,1,12.777,5.157,20.487,20.487,0,0,1,6.566,11.119,17.468,17.468,0,0,1,.472,4.279c-.019.791-.429,1.279-1.1,1.295s-1.161-.478-1.191-1.3a19.748,19.748,0,0,0-.684-4.747,18.238,18.238,0,0,0-7.744-10.554,17.964,17.964,0,0,0-9.592-2.965c-.082,0-.165,0-.247-.01-.86-.08-1.387-.57-1.333-1.237.058-.72.633-1.122,1.521-1.067C259.387-698.018,259.572-698.012,259.757-698Z" transform="translate(-190.666 -41.486)"/>
    <path id="Path_6404" data-name="Path 6404" d="M272.994-642.237c0,.226.014.453,0,.679a1.087,1.087,0,0,1-1,1.068,1.064,1.064,0,0,1-1.216-.893c-.117-.622-.123-1.265-.2-1.9a11.924,11.924,0,0,0-10.058-10.109c-.573-.077-1.15-.058-1.718-.147-.922-.144-1.391-.893-1.038-1.628a1.161,1.161,0,0,1,1.16-.669,14,14,0,0,1,10.47,4.755A13.9,13.9,0,0,1,272.994-642.237Z" transform="translate(-190.638 -77.16)"/>
    <path id="Path_6405" data-name="Path 6405" d="M259.356-613.551a7.615,7.615,0,0,1,7.028,6.446,6.1,6.1,0,0,1,.062,1.29,1.07,1.07,0,0,1-.956,1.041,1.065,1.065,0,0,1-1.2-.742c-.131-.449-.153-.929-.239-1.392a5.319,5.319,0,0,0-4.823-4.325c-.123-.009-.247-.012-.368-.032-.8-.13-1.287-.659-1.2-1.3a1.259,1.259,0,0,1,1.515-1.015C259.234-613.572,259.3-613.56,259.356-613.551Z" transform="translate(-190.641 -112.871)"/>
  </g>
</svg>
