<svg xmlns="http://www.w3.org/2000/svg" width="63.298" height="55.107" viewBox="0 0 63.298 55.107">
  <g id="pro_faq" transform="translate(-121.216 -1723.648)">
    <g id="chat" transform="translate(121.216 1723.649)">
      <path id="Path_6277" data-name="Path 6277" d="M263.1,213.432l-.008-.025-2.514-7.64V187.059a5.57,5.57,0,0,0-5.563-5.563h-16.24v9.1a9.283,9.283,0,0,1-9.272,9.272h-1.315v8.947a5.57,5.57,0,0,0,5.563,5.563h18.874l4.858,3.233a3.665,3.665,0,0,0,4.29-.093A3.666,3.666,0,0,0,263.1,213.432Zm-12.623-6.588a1.854,1.854,0,0,1-2.39-1.08l-.808-2.14h-5.645l-.817,2.145a1.854,1.854,0,0,1-3.466-1.32l5.107-13.408.017-.042a2.163,2.163,0,0,1,4,0l.02.051,5.06,13.409A1.854,1.854,0,0,1,250.474,206.844Z" transform="translate(-199.974 -163.153)"/>
      <path id="Path_6278" data-name="Path 6278" d="M348.384,304h2.833l-1.41-3.736Z" transform="translate(-305.314 -267.236)"/>
      <path id="Path_6279" data-name="Path 6279" d="M29.525,33.126H8.261A5.57,5.57,0,0,0,2.7,38.689V57.521L.184,65.162l-.008.025A3.665,3.665,0,0,0,1.5,69.275a3.665,3.665,0,0,0,4.288.093l4.858-3.233H29.525a5.57,5.57,0,0,0,5.563-5.563V38.689A5.569,5.569,0,0,0,29.525,33.126ZM26.633,57.869a1.854,1.854,0,0,1-2.622,0l-.812-.812a8.662,8.662,0,1,1,2.6-2.646l.835.835A1.855,1.855,0,0,1,26.633,57.869Z" transform="translate(0 -33.126)"/>
      <path id="Path_6280" data-name="Path 6280" d="M114.394,128.157a4.942,4.942,0,1,0,2,9.458l-.812-.812a1.854,1.854,0,1,1,2.623-2.623l.769.769a4.939,4.939,0,0,0-4.581-6.793Z" transform="translate(-95.921 -116.409)"/>
    </g>
  </g>
</svg>
