<svg xmlns="http://www.w3.org/2000/svg" width="14.001" height="14" viewBox="0 0 14.001 14">
  <g id="pro_wh" transform="translate(-2687.999 -1130)">
    <rect id="Rectangle_17790" data-name="Rectangle 17790" width="14" height="14" transform="translate(2688 1130)" fill="none"/>
    <g id="Group_5445" data-name="Group 5445" transform="translate(2687.999 1130)">
      <path id="Path_6361" data-name="Path 6361" d="M245.655,246.46l-1.605,3.175a4.851,4.851,0,0,1,.5-2.091A2.164,2.164,0,0,1,245.655,246.46Z" transform="translate(-237.384 -239.735)" fill="#fff"/>
      <path id="Path_6362" data-name="Path 6362" d="M261.845,254.58a2.148,2.148,0,0,1-.218,1.535,4.854,4.854,0,0,1-1.387,1.639Z" transform="translate(-253.132 -247.634)" fill="#fff"/>
      <path id="Path_6363" data-name="Path 6363" d="M66.76,210.838h1.128v-.478a1.182,1.182,0,0,0-1.175-1.186H58.2a3.163,3.163,0,0,1-1.173-.223v5.04a1.731,1.731,0,0,0,1.721,1.737h7.962a1.182,1.182,0,0,0,1.175-1.187v-.692H66.76a.933.933,0,0,1-.927-.936v-1.139a.933.933,0,0,1,.927-.936Zm-8.423.959a.245.245,0,0,1,.174-.073h1.514a.249.249,0,0,1,0,.5H58.512a.247.247,0,0,1-.228-.154.251.251,0,0,1,.053-.271Zm0,1a.245.245,0,0,1,.174-.073h2.5a.249.249,0,0,1,0,.5h-2.5a.247.247,0,0,1-.228-.154.251.251,0,0,1,.053-.271Zm-.072,1.173a.248.248,0,0,1,.247-.249h2.5a.249.249,0,0,1,0,.5h-2.5A.248.248,0,0,1,58.265,213.966Zm.8,1.455a.47.47,0,1,1,.33-.138.47.47,0,0,1-.33.138Zm5.329-3.454a5.18,5.18,0,0,1-1.037,1.4h0l-.014.013-.067.063-.038.035a6.309,6.309,0,0,1-.665.521l-.007,0h0a4.568,4.568,0,0,1-.426.254l-.408.815a.246.246,0,0,1-.22.137H60.026a.249.249,0,0,1,0-.5H61.2a.246.246,0,0,0,.22-.137l.271-.542a5.5,5.5,0,0,1,.492-3.192,3.185,3.185,0,0,1,.383-.6h0l0,0,.053-.062c.029-.033.067-.075.114-.123a2.263,2.263,0,0,1,.494-.388v0l.041-.024a1.99,1.99,0,0,1,.9-.271H64.3l.074.1A2.414,2.414,0,0,1,64.389,211.967Zm2.37-1.129h1.128v-.478a1.182,1.182,0,0,0-1.175-1.186H58.2a3.163,3.163,0,0,1-1.173-.223v5.04a1.731,1.731,0,0,0,1.721,1.737h7.962a1.182,1.182,0,0,0,1.175-1.187v-.692H66.76a.933.933,0,0,1-.927-.936v-1.139a.933.933,0,0,1,.927-.936Zm-8.422.959a.245.245,0,0,1,.174-.073h1.514a.249.249,0,0,1,0,.5H58.512a.247.247,0,0,1-.228-.154.251.251,0,0,1,.053-.271Zm0,1a.245.245,0,0,1,.174-.073h2.5a.249.249,0,0,1,0,.5h-2.5a.247.247,0,0,1-.228-.154.251.251,0,0,1,.053-.271Zm-.072,1.173a.248.248,0,0,1,.247-.249h2.5a.249.249,0,0,1,0,.5h-2.5A.248.248,0,0,1,58.265,213.966Zm.8,1.455a.47.47,0,1,1,.33-.138.47.47,0,0,1-.33.138Zm5.329-3.454a5.18,5.18,0,0,1-1.037,1.4h0l-.014.013-.067.063-.038.035a6.309,6.309,0,0,1-.665.521l-.007,0h0a4.568,4.568,0,0,1-.426.254l-.408.815a.246.246,0,0,1-.22.137H60.026a.249.249,0,0,1,0-.5H61.2a.246.246,0,0,0,.22-.137l.271-.542a5.5,5.5,0,0,1,.492-3.192,3.185,3.185,0,0,1,.383-.6h0l0,0,.053-.062c.029-.033.067-.075.114-.123a2.263,2.263,0,0,1,.494-.388v0l.041-.024a1.99,1.99,0,0,1,.9-.271H64.3l.074.1A2.414,2.414,0,0,1,64.389,211.967Zm2.37-1.129h1.128v-.478a1.182,1.182,0,0,0-1.175-1.186H58.2a3.163,3.163,0,0,1-1.173-.223v5.04a1.731,1.731,0,0,0,1.721,1.737h7.962a1.182,1.182,0,0,0,1.175-1.187v-.692H66.76a.933.933,0,0,1-.927-.936v-1.139a.933.933,0,0,1,.927-.936Zm-8.422.959a.245.245,0,0,1,.174-.073h1.514a.249.249,0,0,1,0,.5H58.512a.247.247,0,0,1-.228-.154.251.251,0,0,1,.053-.271Zm0,1a.245.245,0,0,1,.174-.073h2.5a.249.249,0,0,1,0,.5h-2.5a.247.247,0,0,1-.228-.154.251.251,0,0,1,.053-.271Zm-.072,1.173a.248.248,0,0,1,.247-.249h2.5a.249.249,0,0,1,0,.5h-2.5A.248.248,0,0,1,58.265,213.966Zm.8,1.455a.47.47,0,1,1,.33-.138.47.47,0,0,1-.33.138Zm5.329-3.454a5.18,5.18,0,0,1-1.037,1.4h0l-.014.013-.067.063-.038.035a6.309,6.309,0,0,1-.665.521l-.007,0h0a4.568,4.568,0,0,1-.426.254l-.408.815a.246.246,0,0,1-.22.137H60.026a.249.249,0,0,1,0-.5H61.2a.246.246,0,0,0,.22-.137l.271-.542a5.5,5.5,0,0,1,.492-3.192,3.185,3.185,0,0,1,.383-.6h0l0,0,.053-.062c.029-.033.067-.075.114-.123a2.263,2.263,0,0,1,.494-.388v0l.041-.024a1.99,1.99,0,0,1,.9-.271H64.3l.074.1A2.414,2.414,0,0,1,64.389,211.967Z" transform="translate(-55.46 -203.299)" fill="#fff"/>
      <path id="Path_6364" data-name="Path 6364" d="M89.164,80.06h-8.5a.551.551,0,0,0,0,1.1h8.5a.551.551,0,0,0,0-1.1Z" transform="translate(-77.915 -77.872)" fill="#fff"/>
      <path id="Path_6365" data-name="Path 6365" d="M13.491,3.857a.547.547,0,0,0,.547-.547V2.736A2.739,2.739,0,0,0,11.3,0S2.73,0,2.709,0A2.79,2.79,0,0,0,.8.862,2.7,2.7,0,0,0,.041,2.831c0,.014,0,7.887,0,7.887A3.287,3.287,0,0,0,3.323,14H11.3a2.739,2.739,0,0,0,2.735-2.736V7.112A2.739,2.739,0,0,0,11.3,4.376H2.773A1.637,1.637,0,0,1,1.135,2.814a1.611,1.611,0,0,1,.451-1.2A1.692,1.692,0,0,1,2.8,1.1l8.5,0a1.645,1.645,0,0,1,1.642,1.642V3.31A.547.547,0,0,0,13.491,3.857ZM2.773,5.47H11.3a1.644,1.644,0,0,1,1.642,1.642v.939h-1.6a.464.464,0,0,0-.464.464V9.647a.464.464,0,0,0,.464.464h1.6v1.152A1.645,1.645,0,0,1,11.3,12.907H3.323a2.192,2.192,0,0,1-2.189-2.189V4.925a2.727,2.727,0,0,0,1.64.545Zm9.168,3.611a.26.26,0,1,1-.259-.259.26.26,0,0,1,.259.259Z" transform="translate(-0.04 0)" fill="#fff"/>
    </g>
  </g>
</svg>
