<svg xmlns="http://www.w3.org/2000/svg" width="39.16" height="63.298" viewBox="0 0 39.16 63.298">
  <g id="pro_earn" transform="translate(-1020.265 681.066)">
    <path id="Path_6399" data-name="Path 6399" d="M1037.74-514.949a23.745,23.745,0,0,1-5.025-1.2c-6.694-2.608-10.6-7.53-12.054-14.5-1.311-6.268.71-11.507,4.936-16.054a59.608,59.608,0,0,0,4.569-5.1,17.007,17.007,0,0,0,2.752-5.486.769.769,0,0,1,.871-.652q6.05.022,12.1,0c.446,0,.718.11.853.591a19.418,19.418,0,0,0,4.528,7.694c1.36,1.516,2.89,2.872,4.145,4.486a17.854,17.854,0,0,1,3.917,9.057,18.835,18.835,0,0,1-.784,7.375,18.749,18.749,0,0,1-16.313,13.7,2.106,2.106,0,0,0-.3.078Zm4.733-24.977a1.748,1.748,0,0,0,1.707-1.063,1.752,1.752,0,0,0-.4-1.991,4.468,4.468,0,0,0-1.465-1.011.948.948,0,0,1-.69-.885,1.769,1.769,0,0,0-1.712-1.5,1.744,1.744,0,0,0-1.725,1.4,1.157,1.157,0,0,1-.783,1.027,5.569,5.569,0,0,0-3.075,5.7,5.587,5.587,0,0,0,4.327,4.753c.558.126,1.145.117,1.705.234a2.039,2.039,0,0,1,1.572,1.905,2.091,2.091,0,0,1-1.408,1.978,2.013,2.013,0,0,1-2.287-.767c-.129-.185-.22-.4-.345-.584a1.766,1.766,0,0,0-2.319-.666,1.76,1.76,0,0,0-.814,2.312,5.324,5.324,0,0,0,2.773,2.851.925.925,0,0,1,.631.8A1.694,1.694,0,0,0,1039.79-524a1.65,1.65,0,0,0,1.787-1.292,1.35,1.35,0,0,1,.876-1.051,5.531,5.531,0,0,0,2.951-5.921,5.548,5.548,0,0,0-5.391-4.636,2.135,2.135,0,0,1-1.8-.915,1.954,1.954,0,0,1,.28-2.585,1.949,1.949,0,0,1,2.593-.166A2.258,2.258,0,0,0,1042.473-539.926Z" transform="translate(0 -102.819)"/>
    <path id="Path_6400" data-name="Path 6400" d="M1081.95-664.289c-1.893,0-3.786-.009-5.679.007a.838.838,0,0,1-.871-.517,16.365,16.365,0,0,0-2.927-4.1,6,6,0,0,1,.532-9.07,5.391,5.391,0,0,1,3.911-.989.922.922,0,0,0,.926-.307,5.621,5.621,0,0,1,8.142-.117,1.136,1.136,0,0,0,1.068.431,5.513,5.513,0,0,1,6.022,4.562,6.311,6.311,0,0,1-1.71,5.507,16.777,16.777,0,0,0-2.9,4.118.786.786,0,0,1-.831.477C1085.736-664.3,1083.843-664.289,1081.95-664.289Z" transform="translate(-42.083 0)"/>
    <path id="Path_6401" data-name="Path 6401" d="M1204.607-580.4a2.2,2.2,0,0,1,.928,1.671,1.863,1.863,0,0,1-2.658,1.764c-1.207-.609-2.337-1.371-3.5-2.065a.784.784,0,0,1-.307-.448,15.439,15.439,0,0,1-.82-3.405c-.042-.347.072-.489.4-.539,1.846-.279,3.687-.6,5.537-.844a1.894,1.894,0,0,1,2.244,1.612,1.918,1.918,0,0,1-1.575,2.154C1204.8-580.482,1204.747-580.454,1204.607-580.4Z" transform="translate(-148.615 -80.816)"/>
  </g>
</svg>
