<svg xmlns="http://www.w3.org/2000/svg" width="63.298" height="63.298" viewBox="0 0 63.298 63.298">
  <g id="pro_aboutus" transform="translate(-120.757 -1526.757)">
    <g id="Group_5229" data-name="Group 5229" transform="translate(120.757 1526.757)">
      <g id="Group_5228" data-name="Group 5228" transform="translate(0 0)">
        <path id="Path_5930" data-name="Path 5930" d="M407.649,308A31.649,31.649,0,1,0,439.3,339.649,31.685,31.685,0,0,0,407.649,308Zm0,56.455a24.806,24.806,0,1,1,24.806-24.806A24.835,24.835,0,0,1,407.649,364.455Z" transform="translate(-376 -308)"/>
        <path id="Path_5931" data-name="Path 5931" d="M398.73,326.118a5.807,5.807,0,1,0-5.834-5.807A5.82,5.82,0,0,0,398.73,326.118ZM404.4,337.97a6.638,6.638,0,0,0-6.484-8.15h-5.031a1.711,1.711,0,0,0-1.716,1.708,1.443,1.443,0,0,0,.427.982,3.6,3.6,0,0,1,1,3.31l-2.622,10.66a6.639,6.639,0,0,0,6.486,8.15h5.029a1.711,1.711,0,0,0,1.716-1.708,1.449,1.449,0,0,0-.426-.982,3.593,3.593,0,0,1-1-3.31Z" transform="translate(-366.221 -303.343)"/>
      </g>
    </g>
  </g>
</svg>
